<?xml version="1.0" standalone="no"?>
<!DOCTYPE svg PUBLIC "-//W3C//DTD SVG 20010904//EN"
 "http://www.w3.org/TR/2001/REC-SVG-20010904/DTD/svg10.dtd">
<svg version="1.0" xmlns="http://www.w3.org/2000/svg"
 width="930.000000pt" height="930.000000pt" viewBox="0 0 930.000000 930.000000"
 preserveAspectRatio="xMidYMid meet">

<g transform="translate(0.000000,930.000000) scale(0.100000,-0.100000)"
fill="#000000" stroke="none">
<path d="M7565 8048 c-27 -11 -104 -40 -170 -63 -66 -24 -172 -62 -235 -85
-63 -23 -151 -55 -195 -70 -44 -16 -143 -52 -220 -80 -287 -105 -685 -250
-965 -350 -74 -26 -166 -60 -205 -75 -38 -15 -135 -51 -215 -80 -80 -29 -269
-99 -420 -155 -211 -77 -282 -100 -306 -95 -30 5 -113 35 -354 125 -337 127
-631 230 -653 230 -17 0 -36 -26 -92 -123 -38 -67 -81 -142 -94 -167 -13 -25
-37 -64 -52 -87 -16 -23 -29 -44 -29 -47 0 -2 -48 -87 -107 -188 -58 -101
-119 -206 -134 -234 -16 -28 -37 -58 -47 -67 -19 -17 -104 -51 -387 -152 -437
-156 -632 -229 -650 -244 -24 -20 -141 -66 -395 -156 -102 -36 -220 -79 -262
-95 -42 -17 -80 -30 -83 -30 -3 0 -84 -29 -178 -64 -95 -36 -255 -94 -357
-130 -102 -36 -207 -75 -235 -87 -27 -12 -88 -34 -135 -50 -141 -47 -255 -90
-263 -98 -4 -4 54 -59 129 -122 76 -63 151 -125 167 -139 16 -14 62 -52 102
-85 112 -94 311 -261 410 -345 50 -42 162 -136 250 -210 88 -73 187 -157 220
-185 33 -29 87 -73 120 -99 33 -27 98 -85 145 -130 84 -79 148 -136 260 -226
30 -24 142 -118 247 -207 106 -90 196 -163 200 -163 13 0 5 1902 -8 1915 -12
12 -187 13 -339 3 -132 -10 -148 -1 -157 84 -3 31 -3 69 1 84 l7 27 167 -6
c196 -8 310 -30 423 -83 43 -20 90 -50 106 -66 27 -28 28 -33 35 -171 3 -78 7
-551 9 -1052 2 -974 8 -1296 24 -1301 6 -2 37 42 69 99 33 56 65 109 72 117 7
9 55 90 107 180 119 209 229 400 297 515 29 50 94 162 145 250 84 147 138 241
300 520 32 55 109 188 170 295 62 107 150 260 197 340 47 80 110 191 142 248
l57 102 117 0 c97 0 122 -3 147 -19 57 -35 84 -68 91 -110 4 -23 11 -41 16
-41 5 0 30 18 56 39 54 45 136 91 164 91 53 0 142 -85 154 -145 12 -65 -2
-113 -71 -233 -137 -242 -186 -368 -157 -411 18 -26 64 -1 134 71 59 60 78 91
143 223 110 226 234 370 386 450 62 33 84 39 138 39 l63 1 44 -48 43 -48 32
50 c18 31 38 51 48 51 10 0 31 -18 46 -40 22 -31 29 -55 32 -107 l5 -68 -136
-279 c-75 -153 -135 -281 -132 -283 10 -11 134 87 203 160 52 55 75 88 84 119
87 323 282 677 501 911 39 41 50 47 84 47 46 0 74 -23 98 -80 26 -63 29 -122
11 -194 -48 -193 -186 -388 -401 -568 -78 -66 -95 -85 -108 -125 -45 -141 -59
-256 -34 -281 34 -34 120 8 219 109 68 69 90 108 113 199 77 302 359 551 524
463 40 -22 110 -89 126 -123 61 -119 -33 -325 -186 -407 -50 -27 -162 -25
-211 5 -65 38 -67 35 -82 -93 -31 -252 266 -210 480 69 34 45 68 79 85 84 33
12 31 5 85 322 68 407 86 506 100 580 9 41 17 111 20 155 2 44 8 100 13 125 5
25 24 126 41 225 18 99 46 253 62 342 16 89 43 240 59 335 27 155 58 334 145
821 14 82 25 152 23 157 -2 4 -25 -1 -53 -12z"/>
<path d="M6377 5598 c-76 -107 -201 -317 -193 -325 7 -8 112 128 166 217 90
147 109 224 27 108z"/>
<path d="M6815 5331 c-22 -11 -63 -40 -92 -65 -53 -47 -153 -186 -153 -212 0
-19 62 -19 98 0 34 18 111 99 144 152 34 54 61 125 51 135 -4 4 -26 0 -48 -10z"/>
<path d="M5515 5298 c-150 -99 -305 -319 -350 -496 -65 -251 171 -49 344 296
56 111 89 232 63 232 -5 0 -30 -14 -57 -32z"/>
<path d="M4627 5222 c-135 -115 -210 -224 -351 -509 -30 -61 -60 -114 -66
-118 -6 -4 -19 0 -29 9 -10 9 -25 14 -33 11 -21 -8 -53 39 -61 87 -8 50 15
149 53 233 53 116 69 155 65 155 -2 0 -60 -98 -128 -217 -115 -202 -255 -446
-432 -753 -40 -69 -124 -215 -187 -325 -63 -110 -175 -303 -248 -430 -73 -126
-149 -257 -168 -290 -19 -33 -54 -98 -79 -145 -114 -214 -146 -246 -265 -257
-65 -6 -66 -9 -49 -100 5 -26 20 -110 32 -186 12 -76 27 -145 33 -153 9 -12
86 -14 536 -15 289 0 533 -4 542 -7 17 -7 139 -107 307 -252 48 -41 118 -100
156 -130 37 -30 133 -111 214 -179 80 -68 162 -131 181 -139 19 -7 57 -33 85
-56 27 -24 266 -222 530 -441 264 -219 572 -476 685 -570 266 -221 279 -231
285 -214 2 8 36 194 75 414 86 486 129 731 181 1020 22 121 51 285 65 365 13
80 31 172 39 205 8 33 40 204 71 380 30 176 69 394 84 485 16 91 36 179 45
195 9 17 116 113 238 215 121 102 304 254 405 338 205 171 198 161 145 245
-15 23 -69 116 -121 207 -87 151 -174 302 -290 503 -30 52 -51 77 -63 77 -11
0 -40 -28 -73 -72 -130 -173 -339 -258 -511 -209 -38 11 -65 29 -114 78 l-64
64 -36 -31 c-87 -75 -182 -120 -251 -120 -81 0 -191 66 -206 124 -3 14 -8 26
-10 26 -2 0 -32 -23 -66 -50 -34 -28 -105 -71 -158 -96 -52 -25 -106 -51 -119
-57 -18 -9 -38 -42 -70 -117 -104 -239 -190 -389 -273 -477 -77 -81 -108 -97
-175 -90 -67 7 -101 35 -140 114 -60 124 -3 302 136 431 69 62 253 172 290
172 10 0 36 39 29 45 -2 2 -30 -4 -64 -13 -78 -20 -135 -6 -198 49 -24 22 -48
39 -53 39 -5 0 -19 -11 -32 -24 -12 -13 -47 -36 -79 -52 -82 -42 -174 -41
-258 1 -45 23 -63 39 -78 69 -53 108 -22 233 120 482 35 62 64 115 64 118 0
15 -20 2 -93 -62z"/>
<path d="M5156 4360 c-52 -46 -125 -146 -156 -215 -29 -63 -45 -125 -32 -125
22 0 243 352 230 366 -3 3 -22 -9 -42 -26z"/>
</g>
</svg>
